<?xml version="1.0" encoding="UTF-8" standalone="no"?><!DOCTYPE svg PUBLIC "-//W3C//DTD SVG 1.1//EN" "http://www.w3.org/Graphics/SVG/1.1/DTD/svg11.dtd"><svg width="100%" height="100%" viewBox="0 0 143 128" version="1.1" xmlns="http://www.w3.org/2000/svg" xmlns:xlink="http://www.w3.org/1999/xlink" xml:space="preserve" xmlns:serif="http://www.serif.com/" style="fill-rule:evenodd;clip-rule:evenodd;stroke-linejoin:round;stroke-miterlimit:1.41421;"><path d="M56.615,0l-56.615,24.615l0,88.616l56.615,14.769l0,-128Zm-7.439,12.554l-44.567,17.818l0,75.171l44.567,10.395l0,-103.384Z"/><path d="M90.938,4.646l-21.23,5.446l12.83,4.809l0.053,98.757l-13.376,5.234l21.723,4.462l0,-118.708Z"/><path d="M117.959,10l-19.316,4.955l11.673,4.375l0.049,89.849l-12.17,4.762l19.764,4.059l0,-108Z"/><path d="M142.227,14l-17.885,4.588l10.809,4.051l0.044,83.193l-11.268,4.41l18.3,3.758l0,-100Z"/></svg>